<svg width="30" height="32" viewBox="0 0 30 32" fill="none" xmlns="http://www.w3.org/2000/svg">
<path d="M10 26C10 27.3261 10.5268 28.5979 11.4645 29.5355C12.4021 30.4732 13.6739 31 15 31C16.3261 31 17.5979 30.4732 18.5355 29.5355C19.4732 28.5979 20 27.3261 20 26" stroke="white" stroke-width="2" stroke-linecap="round" stroke-linejoin="round"/>
<path d="M3.75005 12.25C3.75005 9.26631 4.93531 6.40483 7.0451 4.29505C9.15488 2.18526 12.0164 1 15 1C17.9837 1 20.8452 2.18526 22.955 4.29505C25.0648 6.40483 26.25 9.26631 26.25 12.25C26.25 17.8469 27.5469 22.3438 28.5782 24.125C28.6877 24.3147 28.7455 24.5299 28.7456 24.7489C28.7458 24.9679 28.6885 25.1832 28.5793 25.3731C28.4701 25.563 28.3129 25.7209 28.1235 25.8309C27.9341 25.9409 27.7191 25.9992 27.5 26H2.50005C2.28127 25.9987 2.06666 25.94 1.87769 25.8297C1.68871 25.7195 1.53198 25.5616 1.42316 25.3718C1.31433 25.1819 1.25724 24.9669 1.25757 24.7481C1.2579 24.5293 1.31565 24.3145 1.42505 24.125C2.45474 22.3438 3.75005 17.8453 3.75005 12.25Z" stroke="white" stroke-width="2" stroke-linecap="round" stroke-linejoin="round"/>
</svg>
